<?xml version="1.0" encoding="UTF-8"?>
<svg version="1.1" xmlns="http://www.w3.org/2000/svg" width="500" height="500">
<path d="M0 0 C3.61806648 0.50518215 4.74747637 1.5462792 6.9375 4.41015625 C6.9375 5.07015625 6.9375 5.73015625 6.9375 6.41015625 C7.9275 6.74015625 8.9175 7.07015625 9.9375 7.41015625 C11.15620952 8.85943244 12.37088784 10.31272253 13.546875 11.796875 C15.72352313 14.3220314 18.37668274 16.28522278 20.9375 18.41015625 C21.576875 19.21453125 22.21625 20.01890625 22.875 20.84765625 C25.16792438 23.69644109 27.69624317 25.80839924 30.546875 28.078125 C31.23523438 28.73748047 31.23523438 28.73748047 31.9375 29.41015625 C31.9375 30.07015625 31.9375 30.73015625 31.9375 31.41015625 C33.4225 31.90515625 33.4225 31.90515625 34.9375 32.41015625 C36.15620952 33.85943244 37.37088784 35.31272253 38.546875 36.796875 C40.72352313 39.3220314 43.37668274 41.28522278 45.9375 43.41015625 C46.576875 44.21453125 47.21625 45.01890625 47.875 45.84765625 C50.16792438 48.69644109 52.69624317 50.80839924 55.546875 53.078125 C56.00578125 53.51769531 56.4646875 53.95726562 56.9375 54.41015625 C56.9375 55.07015625 56.9375 55.73015625 56.9375 56.41015625 C58.4225 56.90515625 58.4225 56.90515625 59.9375 57.41015625 C61.15620952 58.85943244 62.37088784 60.31272253 63.546875 61.796875 C65.72352313 64.3220314 68.37668274 66.28522278 70.9375 68.41015625 C71.576875 69.21453125 72.21625 70.01890625 72.875 70.84765625 C75.16792438 73.69644109 77.69624317 75.80839924 80.546875 78.078125 C81.00578125 78.51769531 81.4646875 78.95726563 81.9375 79.41015625 C81.9375 80.07015625 81.9375 80.73015625 81.9375 81.41015625 C82.9275 81.74015625 83.9175 82.07015625 84.9375 82.41015625 C86.15620952 83.85943244 87.37088784 85.31272253 88.546875 86.796875 C90.72352313 89.3220314 93.37668274 91.28522278 95.9375 93.41015625 C96.576875 94.21453125 97.21625 95.01890625 97.875 95.84765625 C99.64891359 98.0516095 101.28116511 99.62007782 103.4375 101.41015625 C106.36065596 103.83681014 108.57037541 106.43216079 110.9375 109.41015625 C111.906875 110.21453125 112.87625 111.01890625 113.875 111.84765625 C117.00236774 114.46443334 119.33280806 117.28452592 121.9375 120.41015625 C122.9275 121.23515625 123.9175 122.06015625 124.9375 122.91015625 C128.04455716 125.49937055 130.35363738 128.30952111 132.9375 131.41015625 C134.93415598 133.08082758 136.93401034 134.74768611 138.9375 136.41015625 C140.27083333 138.07682292 141.60416667 139.74348958 142.9375 141.41015625 C143.906875 142.21453125 144.87625 143.01890625 145.875 143.84765625 C149.00236774 146.46443334 151.33280806 149.28452592 153.9375 152.41015625 C154.9275 153.23515625 155.9175 154.06015625 156.9375 154.91015625 C160.04907653 157.50313669 162.38814209 160.27248497 164.9375 163.41015625 C167.91163791 166.54112253 171.02900865 169.34593378 174.328125 172.1328125 C188.74751371 184.71202094 188.74751371 184.71202094 189.55029297 192.83764648 C189.56863781 196.23401006 189.38044057 199.59172922 189.125 202.97802734 C188.89387489 207.20870023 188.92161043 211.413028 188.96875 215.6484375 C189.13617953 232.25458586 189.14434571 248.83757859 187.9375 265.41015625 C181.51561041 264.13958885 177.39766714 258.88247396 172.9375 254.41015625 C172.04056081 253.51229527 171.14362162 252.61443428 170.21950245 251.68936539 C169.22117621 250.68975377 168.22286405 249.69012809 167.2245636 248.69049072 C166.07315886 247.53761995 164.92175082 246.38475248 163.77033997 245.23188782 C162.8557624 244.31614707 162.8557624 244.31614707 161.92270851 243.38190651 C147.89259331 229.33411587 133.85962589 215.28917738 119.8250246 201.24586868 C111.71264257 193.12831817 103.60120918 185.00982381 95.49194336 176.88916016 C88.41041953 169.79768821 81.32715623 162.70795921 74.24177426 155.62034202 C70.4924211 151.869683 66.74395935 148.1181426 62.99758339 144.36450958 C59.47935274 140.83951723 55.95881078 137.31685038 52.43644333 133.7959919 C51.14151704 132.50078945 49.84745392 131.2047234 48.55430031 129.90775108 C46.7949829 128.14349122 45.03264556 126.38230553 43.26948547 124.62188721 C42.75344374 124.10293263 42.237402 123.58397805 41.70572263 123.04929757 C39.07257532 120.39690328 39.07257532 120.39690328 35.9375 118.41015625 C35.9375 117.75015625 35.9375 117.09015625 35.9375 116.41015625 C35.06786621 116.02947998 35.06786621 116.02947998 34.18066406 115.64111328 C31.68677777 114.2725701 30.04006164 112.74017856 28.046875 110.71484375 C27.33789062 109.99941406 26.62890625 109.28398438 25.8984375 108.546875 C25.16882813 107.80050781 24.43921875 107.05414063 23.6875 106.28515625 C22.94242187 105.53105469 22.19734375 104.77695313 21.4296875 104 C19.5943658 102.14114853 17.7638809 100.2777862 15.9375 98.41015625 C11.5308047 113.61970736 10.40607105 127.56821191 10.43652344 143.40454102 C10.43749154 146.94175776 10.39583836 150.47676879 10.3515625 154.01367188 C10.27357719 168.79595528 11.85572885 182.20050029 15.9375 196.41015625 C16.42573242 198.1425354 16.42573242 198.1425354 16.92382812 199.90991211 C17.70126515 202.499229 18.53958246 205.04802697 19.4375 207.59765625 C19.73519287 208.46438965 20.03288574 209.33112305 20.33959961 210.22412109 C23.92718652 220.49893907 28.58625618 229.94662654 33.9375 239.41015625 C34.72253906 240.82941406 34.72253906 240.82941406 35.5234375 242.27734375 C38.77649778 248.03510772 42.29827923 253.52275853 46.125 258.91015625 C46.54104492 259.49772705 46.95708984 260.08529785 47.38574219 260.69067383 C49.20427347 263.20771622 51.03075782 265.50262241 53.23828125 267.69140625 C54.9375 269.41015625 54.9375 269.41015625 54.9375 271.41015625 C55.5975 271.41015625 56.2575 271.41015625 56.9375 271.41015625 C58.12438006 272.78950335 59.3085978 274.17299628 60.42578125 275.609375 C62.45458884 278.02611996 64.69877889 280.18600217 66.9375 282.41015625 C87.60416667 303.07682292 108.27083333 323.74348958 128.9375 344.41015625 C129.05364929 340.32706205 129.12473457 336.24439248 129.1875 332.16015625 C129.23777344 330.42185547 129.23777344 330.42185547 129.2890625 328.6484375 C129.30195313 327.53339844 129.31484375 326.41835938 129.328125 325.26953125 C129.34907227 324.24311523 129.37001953 323.21669922 129.39160156 322.15917969 C128.8237978 318.72183005 127.4867344 317.67964273 124.9375 315.41015625 C124.9375 314.75015625 124.9375 314.09015625 124.9375 313.41015625 C124.339375 313.14203125 123.74125 312.87390625 123.125 312.59765625 C120.93902146 311.41098219 119.52417406 310.31416512 117.9375 308.41015625 C117.9375 307.75015625 117.9375 307.09015625 117.9375 306.41015625 C117.35484375 306.15234375 116.7721875 305.89453125 116.171875 305.62890625 C113.7572097 304.31181608 112.12009823 302.85927241 110.1875 300.91015625 C109.57390625 300.30171875 108.9603125 299.69328125 108.328125 299.06640625 C106.9375 297.41015625 106.9375 297.41015625 106.9375 295.41015625 C106.339375 295.14203125 105.74125 294.87390625 105.125 294.59765625 C102.93902146 293.41098219 101.52417406 292.31416512 99.9375 290.41015625 C99.9375 289.75015625 99.9375 289.09015625 99.9375 288.41015625 C99.339375 288.14203125 98.74125 287.87390625 98.125 287.59765625 C95.93902146 286.41098219 94.52417406 285.31416512 92.9375 283.41015625 C92.9375 282.75015625 92.9375 282.09015625 92.9375 281.41015625 C92.339375 281.14203125 91.74125 280.87390625 91.125 280.59765625 C88.93902146 279.41098219 87.52417406 278.31416512 85.9375 276.41015625 C85.9375 275.75015625 85.9375 275.09015625 85.9375 274.41015625 C84.6175 273.75015625 83.2975 273.09015625 81.9375 272.41015625 C81.9375 271.75015625 81.9375 271.09015625 81.9375 270.41015625 C80.9475 270.08015625 79.9575 269.75015625 78.9375 269.41015625 C77.2890625 267.7734375 77.2890625 267.7734375 75.5625 265.72265625 C74.95535156 265.00464844 74.34820312 264.28664063 73.72265625 263.546875 C73.13355469 262.84175781 72.54445313 262.13664062 71.9375 261.41015625 C71.42058594 260.81847656 70.90367188 260.22679687 70.37109375 259.6171875 C66.9375 255.65534856 66.9375 255.65534856 66.9375 253.41015625 C66.2775 253.41015625 65.6175 253.41015625 64.9375 253.41015625 C64.6075 252.09015625 64.2775 250.77015625 63.9375 249.41015625 C63.2775 249.41015625 62.6175 249.41015625 61.9375 249.41015625 C60.43774293 247.22924678 59.07942294 245.06786051 57.75 242.78515625 C57.14889404 241.7628894 57.14889404 241.7628894 56.53564453 240.7199707 C46.64085068 223.70037404 38.77957125 205.77615197 34.9375 186.41015625 C34.78796875 185.66072754 34.6384375 184.91129883 34.484375 184.13916016 C31.87960972 170.53992765 31.57086866 157.22557704 31.9375 143.41015625 C36.24049768 143.91596948 38.16765343 145.14798272 41.18945312 148.20800781 C41.99378784 149.01264465 42.79812256 149.81728149 43.62683105 150.64630127 C44.48216431 151.52227966 45.33749756 152.39825806 46.21875 153.30078125 C47.10985474 154.19754578 48.00095947 155.0943103 48.91906738 156.01824951 C51.2851881 158.40296644 53.64227941 160.79594071 55.99542236 163.19342041 C58.37908294 165.6178394 60.77393453 168.03114429 63.16796875 170.4453125 C66.67952917 173.98954539 70.18581243 177.53881618 73.68554688 181.09472656 C79.01431071 186.50583102 84.36259975 191.70759046 90.14453125 196.640625 C90.73621094 197.22457031 91.32789063 197.80851563 91.9375 198.41015625 C91.9375 199.07015625 91.9375 199.73015625 91.9375 200.41015625 C92.9275 200.74015625 93.9175 201.07015625 94.9375 201.41015625 C94.9375 202.07015625 94.9375 202.73015625 94.9375 203.41015625 C96.2575 204.07015625 97.5775 204.73015625 98.9375 205.41015625 C98.9375 206.07015625 98.9375 206.73015625 98.9375 207.41015625 C99.9275 207.74015625 100.9175 208.07015625 101.9375 208.41015625 C104.125 210.34765625 104.125 210.34765625 105.9375 212.41015625 C105.9375 213.07015625 105.9375 213.73015625 105.9375 214.41015625 C107.2575 215.07015625 108.5775 215.73015625 109.9375 216.41015625 C109.9375 217.07015625 109.9375 217.73015625 109.9375 218.41015625 C110.9275 218.74015625 111.9175 219.07015625 112.9375 219.41015625 C112.9375 220.07015625 112.9375 220.73015625 112.9375 221.41015625 C113.515 221.63703125 114.0925 221.86390625 114.6875 222.09765625 C117.52184736 223.75102555 118.90512189 225.83979569 120.9375 228.41015625 C122.91706942 230.10103847 124.91695196 231.76846097 126.9375 233.41015625 C129.3125 235.59765625 129.3125 235.59765625 130.9375 237.41015625 C130.9375 238.07015625 130.9375 238.73015625 130.9375 239.41015625 C131.9275 239.74015625 132.9175 240.07015625 133.9375 240.41015625 C135.15974831 241.86364072 136.3778436 243.32120102 137.55859375 244.80859375 C139.28319168 246.81166784 141.29664356 248.37299529 143.35617065 250.01852417 C145.12578772 251.57585686 146.59138748 253.25169214 148.11376953 255.05126953 C151.96185928 259.50013029 156.0606589 263.64359014 160.2421875 267.77734375 C161.3890654 268.91854172 161.3890654 268.91854172 162.55911255 270.08279419 C164.97447383 272.48604638 167.39307398 274.88599666 169.8125 277.28515625 C173.02107538 280.46720404 176.22636664 283.6525074 179.4296875 286.83984375 C180.53737991 287.93508865 180.53737991 287.93508865 181.66744995 289.05245972 C182.3455069 289.72721344 183.02356384 290.40196716 183.72216797 291.09716797 C184.61982376 291.98696854 184.61982376 291.98696854 185.53561401 292.89474487 C187.86398272 295.41166598 188.0739013 297.17969572 188.14282227 300.50708008 C188.16275742 301.38054077 188.18269257 302.25400146 188.20323181 303.15393066 C188.22831566 304.6207428 188.22831566 304.6207428 188.25390625 306.1171875 C188.28521385 307.69989441 188.28521385 307.69989441 188.31715393 309.3145752 C188.3851863 312.9505147 188.44350311 316.58651983 188.5 320.22265625 C188.52084656 321.49160736 188.54169312 322.76055847 188.56317139 324.06796265 C189.02255495 353.05143267 189.0476929 382.03777582 189.06043625 411.02428818 C189.06249431 414.71245287 189.0662558 418.40061268 189.07034302 422.08877563 C189.07626332 427.99369636 189.07630234 433.89859079 189.07188225 439.80351257 C189.07085191 441.99902836 189.07138659 444.19454555 189.07364082 446.39006042 C189.08385705 458.4403312 188.89659791 470.39367801 187.9375 482.41015625 C185.9575 482.08015625 183.9775 481.75015625 181.9375 481.41015625 C181.9375 480.75015625 181.9375 480.09015625 181.9375 479.41015625 C181.3924327 479.18998966 180.8473654 478.96982307 180.28578091 478.74298477 C177.1782927 476.9792482 174.85807811 474.60310555 172.36500549 472.0848999 C171.81383605 471.53614488 171.26266662 470.98738986 170.69479507 470.42200589 C168.84846415 468.58131223 167.00937042 466.7335546 165.17016602 464.88574219 C163.84807832 463.5647274 162.52555779 462.24414567 161.20263672 460.92396545 C157.60921327 457.3353933 154.02207812 453.74059489 150.4361546 450.1445303 C146.68215118 446.38174588 142.92287923 442.62423191 139.16429138 438.86602783 C132.85017175 432.55097125 126.53993885 426.23205195 120.23217773 419.91064453 C112.9442057 412.60696368 105.65103735 405.30850546 98.35483986 398.01304221 C90.58494148 390.24382011 82.81886028 382.47079096 75.05388904 374.69664478 C72.81823012 372.45885686 70.58186345 370.22177832 68.34533882 367.98485565 C64.82588333 364.4643933 61.30899773 360.94138305 57.79405975 357.41641045 C56.50536018 356.12479739 55.21582221 354.8340202 53.92537498 353.54415321 C52.16024965 351.77952112 50.39824303 350.01183121 48.63697815 348.24334717 C48.12899282 347.73691044 47.62100748 347.2304737 47.09762865 346.7086904 C44.69963826 344.29451531 42.42255001 341.83307649 40.26878262 339.20183182 C37.98599754 336.29865324 37.98599754 336.29865324 34.9375 333.91015625 C31.83044284 331.32094195 29.52136262 328.51079139 26.9375 325.41015625 C25.48129731 324.2072062 24.02438729 323.0048036 22.546875 321.828125 C19.95248402 319.54229023 17.78559487 316.90467039 15.55078125 314.2734375 C13.86043366 312.26801189 13.86043366 312.26801189 11.5 310.03515625 C9.9375 308.41015625 9.9375 308.41015625 9.9375 306.41015625 C8.9475 306.08015625 7.9575 305.75015625 6.9375 305.41015625 C5.13045965 303.34043112 3.46153917 301.28607855 1.8125 299.09765625 C1.35746094 298.51564453 0.90242188 297.93363281 0.43359375 297.33398438 C-1.81458226 294.38867367 -3.33035583 292.03304147 -4.0625 288.41015625 C-4.7225 288.41015625 -5.3825 288.41015625 -6.0625 288.41015625 C-7.57742153 286.33471376 -8.9576257 284.27482231 -10.3125 282.09765625 C-10.91856079 281.13533081 -10.91856079 281.13533081 -11.53686523 280.15356445 C-18.28703079 269.34011407 -23.83125457 258.01907998 -29.0625 246.41015625 C-29.36833008 245.73210937 -29.67416016 245.0540625 -29.98925781 244.35546875 C-36.80358369 229.04371573 -41.82107287 212.97092129 -45.375 196.59765625 C-45.52219482 195.93137207 -45.66938965 195.26508789 -45.82104492 194.57861328 C-48.94926986 179.11138056 -49.43832563 163.50972266 -49.375 147.78515625 C-49.37284485 146.81871185 -49.3706897 145.85226746 -49.36846924 144.85653687 C-49.26131339 114.86435788 -44.44236152 86.62261986 -34.0625 58.41015625 C-33.83626953 57.78028809 -33.61003906 57.15041992 -33.37695312 56.50146484 C-28.0016768 41.65713291 -20.41307737 27.65796766 -11.93359375 14.3671875 C-10.6464297 12.33298461 -9.41180882 10.26488452 -8.22265625 8.171875 C-7.63355469 7.15738281 -7.04445312 6.14289062 -6.4375 5.09765625 C-5.67566406 3.74220703 -5.67566406 3.74220703 -4.8984375 2.359375 C-3.0625 0.41015625 -3.0625 0.41015625 0 0 Z " fill="#F3F3F3" transform="translate(54.0625,7.58984375)"/>
<path d="M0 0 C5.512262 2.03083337 8.22459773 9.26990385 10.8828125 14.21484375 C12.30174815 16.74441228 13.82732848 19.18611337 15.37646484 21.63720703 C28.39642909 42.49970515 36.71615367 65.55359123 42.625 89.3125 C42.97655151 90.70263306 42.97655151 90.70263306 43.33520508 92.12084961 C47.4238118 109.39803704 48.87963866 126.74734449 48.76611328 144.46166992 C48.74998427 147.44040535 48.76610745 150.41778855 48.78515625 153.39648438 C48.82681921 192.18828448 38.38240488 231.09293165 19.375 264.875 C18.41594125 266.68711626 17.45756006 268.49959135 16.5 270.3125 C10.13615455 281.85661857 3.29064215 292.52794387 -5.47265625 302.3984375 C-7.62490399 304.66716676 -7.62490399 304.66716676 -8.625 306.875 C-9.285 306.875 -9.945 306.875 -10.625 306.875 C-10.89699219 307.4628125 -11.16898438 308.050625 -11.44921875 308.65625 C-13.77942473 313.05344932 -17.18220061 316.72815946 -21.0625 319.8125 C-24.12694253 322.27900252 -26.42146435 325.10893599 -28.87890625 328.16796875 C-30.83636743 330.08163885 -32.00500707 330.33002794 -34.625 330.875 C-34.83478928 319.30402959 -34.99407632 307.73352153 -35.09130955 296.16102695 C-35.13800982 290.78561644 -35.20120947 285.41151979 -35.30395508 280.03686523 C-35.40272918 274.83660681 -35.45576108 269.63760082 -35.47889519 264.43647575 C-35.49535127 262.46586355 -35.52748084 260.49530935 -35.57657051 258.52523994 C-35.89752159 245.09388272 -33.87774259 236.16224753 -26.71726799 224.76586723 C-23.51602901 219.22407901 -21.62324293 212.92966145 -19.625 206.875 C-19.39828613 206.19469727 -19.17157227 205.51439453 -18.93798828 204.81347656 C-11.97768351 183.57982731 -10.11904027 162.15337557 -10.625 139.875 C-10.64385254 138.8842749 -10.64385254 138.8842749 -10.66308594 137.87353516 C-11.05493946 117.78301578 -11.05493946 117.78301578 -16.625 98.875 C-24.05211166 105.40127096 -31.10564449 112.2309983 -38.0625 119.25 C-39.05119274 120.24372798 -40.04012411 121.2372186 -41.02929688 122.23046875 C-42.82886575 124.03810387 -44.62677607 125.8473299 -46.42358398 127.65771484 C-47.71323949 128.95666697 -49.01871271 130.24083973 -50.35961914 131.48681641 C-53.57764323 135.01714343 -52.76578576 139.8945192 -52.75630188 144.35762024 C-52.75841759 145.23391388 -52.76053331 146.11020751 -52.76271313 147.0130555 C-52.76872344 149.96094591 -52.76771225 152.90879364 -52.7668457 155.85668945 C-52.76987651 157.96559726 -52.77339774 160.07450441 -52.77737427 162.18341064 C-52.78526955 166.73091518 -52.79041054 171.27841184 -52.79366493 175.82592201 C-52.79956828 183.01509129 -52.81610204 190.20421088 -52.83500671 197.39335632 C-52.84134426 199.85318848 -52.84766988 202.31302068 -52.85398388 204.7728529 C-52.85714969 206.00482446 -52.8603155 207.23679602 -52.86357725 208.50610006 C-52.90567957 225.24714058 -52.93863494 241.98815811 -52.95092773 258.72924805 C-52.95930098 270.01635832 -52.98176448 281.30334582 -53.0202834 292.59039468 C-53.0400689 298.56537672 -53.05244033 304.54017512 -53.04744911 310.51519203 C-53.04281165 316.13524209 -53.05655898 321.75494388 -53.08446121 327.37492371 C-53.09138815 329.43808029 -53.09148347 331.50127276 -53.08426094 333.56442833 C-53.07539796 336.38051137 -53.09102511 339.19543966 -53.11274719 342.01142883 C-53.10430466 342.82845931 -53.09586212 343.64548978 -53.08716375 344.48727876 C-53.17945722 350.95518322 -55.43334969 354.42550848 -59.75 359.25 C-61.625 360.875 -61.625 360.875 -63.625 360.875 C-63.955 361.865 -64.285 362.855 -64.625 363.875 C-65.74249559 365.05342571 -66.86984343 366.223863 -68.04150391 367.34844971 C-69.87456082 369.1155861 -71.64536137 370.93541367 -73.41796875 372.76318359 C-77.30039595 376.75237643 -81.20105486 380.7232063 -85.10839844 384.68798828 C-86.79151131 386.40147165 -88.46922769 388.12027197 -90.14160156 389.84423828 C-92.55962541 392.33477441 -94.99628512 394.80565617 -97.4375 397.2734375 C-98.18346436 398.05036957 -98.92942871 398.82730164 -99.69799805 399.6277771 C-100.402229 400.33246124 -101.10645996 401.03714539 -101.83203125 401.76318359 C-102.4453833 402.38985931 -103.05873535 403.01653503 -103.69067383 403.66220093 C-105.625 404.875 -105.625 404.875 -108.36206055 404.56948853 C-109.10883057 404.34030731 -109.85560059 404.1111261 -110.625 403.875 C-111.8827567 400.10172991 -111.75962358 396.58578082 -111.74525452 392.65571594 C-111.74610894 391.80785733 -111.74696337 390.95999872 -111.74784368 390.08644742 C-111.74949557 387.2351006 -111.74398184 384.38381214 -111.73852539 381.5324707 C-111.73824343 379.49264528 -111.73840143 377.45281975 -111.7389679 375.41299438 C-111.73925552 369.86581944 -111.73336435 364.31866599 -111.72639394 358.77149606 C-111.72015468 352.97788873 -111.71955615 347.18428094 -111.71836853 341.39067078 C-111.71525691 330.41535765 -111.70704579 319.44005445 -111.69701904 308.4647457 C-111.68585267 295.9715657 -111.68034613 283.47838523 -111.67532361 270.98520148 C-111.66486305 245.28179548 -111.64726686 219.57839829 -111.625 193.875 C-112.90688773 194.99179337 -114.18808653 196.10937755 -115.46899414 197.22729492 C-116.18253555 197.84956467 -116.89607697 198.47183441 -117.63124084 199.11296082 C-119.84686123 201.07107593 -121.97592814 203.09253147 -124.0625 205.1875 C-124.72121094 205.84363281 -125.37992187 206.49976563 -126.05859375 207.17578125 C-129.43387437 210.83724527 -128.96420477 215.00464829 -129.176651 219.73854065 C-129.21871455 220.63462872 -129.2607781 221.53071679 -129.30411631 222.45395905 C-129.72100298 231.98874103 -129.78473614 241.51596591 -129.79858398 251.05834961 C-129.80491199 252.98419843 -129.81168013 254.91004584 -129.81884766 256.83589172 C-129.83334885 260.93564997 -129.84513881 265.03540323 -129.85479546 269.1351757 C-129.8704189 275.61972988 -129.89435789 282.10423782 -129.91969299 288.58876038 C-129.99047305 307.01121092 -130.05090573 325.43368515 -130.10180664 343.85620117 C-130.13009009 354.06666914 -130.16543833 364.27708827 -130.20846039 374.48750502 C-130.23520349 380.93391767 -130.25312409 387.38027535 -130.26449764 393.82673252 C-130.27361228 397.82473946 -130.29096522 401.82267886 -130.31067657 405.82064629 C-130.31815651 407.67460572 -130.3222334 409.52858245 -130.32267189 411.38255692 C-130.32375302 413.91096959 -130.33698713 416.43903806 -130.35325623 418.96739197 C-130.34933094 420.06902086 -130.34933094 420.06902086 -130.34532636 421.19290489 C-130.39944178 426.56879095 -131.07178541 430.18765634 -134.74536133 434.1784668 C-135.69564209 435.06832275 -136.64592285 435.95817871 -137.625 436.875 C-138.87918578 438.13060175 -140.12834162 439.39123806 -141.3737793 440.65551758 C-145.19308333 444.51035312 -149.01843198 448.35912893 -152.84594727 452.20581055 C-154.49746164 453.86745992 -156.14718779 455.53088844 -157.79516602 457.19604492 C-160.17520473 459.60020805 -162.56152576 461.99797293 -164.94921875 464.39453125 C-165.68879318 465.14442825 -166.42836761 465.89432526 -167.19035339 466.66694641 C-167.87479019 467.35153427 -168.55922699 468.03612213 -169.2644043 468.74145508 C-169.86665329 469.34814529 -170.46890228 469.95483551 -171.08940125 470.57991028 C-172.625 471.875 -172.625 471.875 -174.625 471.875 C-174.955 472.865 -175.285 473.855 -175.625 474.875 C-177.5625 477.0625 -177.5625 477.0625 -179.625 478.875 C-180.285 478.875 -180.945 478.875 -181.625 478.875 C-181.955 479.865 -182.285 480.855 -182.625 481.875 C-184.605 482.205 -186.585 482.535 -188.625 482.875 C-188.76227465 445.12411795 -188.86802817 407.37327343 -188.93139198 369.62219237 C-188.93889639 365.16731729 -188.94666231 360.7124427 -188.95458984 356.25756836 C-188.95616371 355.37066732 -188.95773757 354.48376629 -188.95935912 353.56998947 C-188.98548094 339.20143589 -189.03279603 324.83302605 -189.08791678 310.4645578 C-189.14398733 295.72579089 -189.17734451 280.98709936 -189.18953097 266.24823016 C-189.19777177 257.15038847 -189.22381717 248.05295305 -189.2724988 238.9552364 C-189.30416704 232.72013856 -189.31381143 226.48525135 -189.30600826 220.25007889 C-189.30215765 216.65028197 -189.30813992 213.05119588 -189.34023285 209.45152473 C-189.37475232 205.55126523 -189.36295614 201.65193701 -189.3465271 197.75154114 C-189.36400415 196.6104937 -189.3814812 195.46944626 -189.39948785 194.29382163 C-189.31374061 186.79651328 -189.31374061 186.79651328 -187.3288815 184.14083421 C-185.73615456 182.82021618 -185.73615456 182.82021618 -182.625 180.875 C-181.8 179.885 -180.975 178.895 -180.125 177.875 C-177.53794664 174.77053597 -174.72778666 172.44965276 -171.625 169.875 C-170.965 169.05 -170.305 168.225 -169.625 167.375 C-167.625 164.875 -167.625 164.875 -164.6875 162.4375 C-161.5518956 159.96860369 -161.5518956 159.96860369 -159.125 156.875 C-156.5357857 153.76794284 -153.72563514 151.45886262 -150.625 148.875 C-149.8 147.885 -148.975 146.895 -148.125 145.875 C-145.5357857 142.76794284 -142.72563514 140.45886262 -139.625 137.875 C-138.8 136.885 -137.975 135.895 -137.125 134.875 C-134.53794664 131.77053597 -131.72778666 129.44965276 -128.625 126.875 C-127.965 126.05 -127.305 125.225 -126.625 124.375 C-124.625 121.875 -124.625 121.875 -121.6875 119.4375 C-118.5518956 116.96860369 -118.5518956 116.96860369 -116.125 113.875 C-113.5357857 110.76794284 -110.72563514 108.45886262 -107.625 105.875 C-106.8 104.885 -105.975 103.895 -105.125 102.875 C-102.53794664 99.77053597 -99.72778666 97.44965276 -96.625 94.875 C-95.965 94.05 -95.305 93.225 -94.625 92.375 C-92.625 89.875 -92.625 89.875 -89.6875 87.4375 C-86.5518956 84.96860369 -86.5518956 84.96860369 -84.125 81.875 C-81.5357857 78.76794284 -78.72563514 76.45886262 -75.625 73.875 C-74.8 72.885 -73.975 71.895 -73.125 70.875 C-70.5357857 67.76794284 -67.72563514 65.45886262 -64.625 62.875 C-63.3875 61.39 -63.3875 61.39 -62.125 59.875 C-59.53794664 56.77053597 -56.72778666 54.44965276 -53.625 51.875 C-52.965 51.05 -52.305 50.225 -51.625 49.375 C-49.625 46.875 -49.625 46.875 -46.6875 44.4375 C-43.5518956 41.96860369 -43.5518956 41.96860369 -41.125 38.875 C-38.5357857 35.76794284 -35.72563514 33.45886262 -32.625 30.875 C-31.8 29.885 -30.975 28.895 -30.125 27.875 C-27.53794664 24.77053597 -24.72778666 22.44965276 -21.625 19.875 C-20.696875 18.699375 -20.696875 18.699375 -19.75 17.5 C-17.33067599 14.51142329 -14.63955805 12.19946359 -11.7109375 9.72265625 C-9.64776126 7.89516119 -7.8081505 5.95927292 -5.9375 3.9375 C-3.84811677 1.84811677 -2.84375571 0.94791857 0 0 Z " fill="#F6F6F6" transform="translate(449.625,7.125)"/>
<path d="M0 0 C0.495 0.99 0.495 0.99 1 2 C0.34 2 -0.32 2 -1 2 C-1.0928125 2.8353125 -1.0928125 2.8353125 -1.1875 3.6875 C-2.3480769 6.99068042 -4.40213446 8.71894733 -7 11 C-7.66 11 -8.32 11 -9 11 C-9.268125 11.598125 -9.53625 12.19625 -9.8125 12.8125 C-10.99917406 14.99847854 -12.09599113 16.41332594 -14 18 C-14.66 18 -15.32 18 -16 18 C-16.31130859 18.79664063 -16.31130859 18.79664063 -16.62890625 19.609375 C-18.57193085 22.99721276 -21.1802874 25.50917986 -23.9375 28.25 C-24.47568359 28.80429688 -25.01386719 29.35859375 -25.56835938 29.9296875 C-26.98575654 31.34883239 -28.48860308 32.68141504 -30 34 C-30.99 34 -31.98 34 -33 34 C-33.103125 34.598125 -33.20625 35.19625 -33.3125 35.8125 C-34.1141384 38.36316765 -34.90032564 39.36691995 -37 41 C-39.1875 41.6875 -39.1875 41.6875 -41 42 C-41 41.34 -41 40.68 -41 40 C-39.55932315 38.79385194 -38.11440466 37.59226601 -36.64453125 36.421875 C-34.73961392 34.85266512 -34.73961392 34.85266512 -32.5 32 C-29.91294664 28.89553597 -27.10278666 26.57465276 -24 24 C-23.01 22.7625 -23.01 22.7625 -22 21.5 C-20 19 -20 19 -17.0625 16.5625 C-13.9268956 14.09360369 -13.9268956 14.09360369 -11.5 11 C-8.85927219 7.83112663 -6.20461037 5.57762138 -3 3 C-1.98319689 2.01709032 -0.97261781 1.02665213 0 0 Z " fill="#888888" transform="translate(377,78)"/>
<path d="M0 0 C0.33 0.99 0.66 1.98 1 3 C-0.62339805 4.70884005 -2.29319053 6.37446717 -4 8 C-4.66 8 -5.32 8 -6 8 C-6.26876953 8.59329102 -6.53753906 9.18658203 -6.81445312 9.79785156 C-8.00290732 12.00540033 -9.20742389 13.46542882 -10.96875 15.234375 C-11.53980469 15.80800781 -12.11085938 16.38164062 -12.69921875 16.97265625 C-13.29347656 17.55917969 -13.88773437 18.14570313 -14.5 18.75 C-15.09425781 19.35199219 -15.68851562 19.95398438 -16.30078125 20.57421875 C-16.87183594 21.14269531 -17.44289063 21.71117187 -18.03125 22.296875 C-18.55267578 22.81604492 -19.07410156 23.33521484 -19.61132812 23.87011719 C-21 25 -21 25 -23 25 C-23.226875 25.598125 -23.45375 26.19625 -23.6875 26.8125 C-25.33811133 29.56351888 -27.1972081 30.52484637 -30 32 C-30.33 31.34 -30.66 30.68 -31 30 C-30.113125 29.29875 -29.22625 28.5975 -28.3125 27.875 C-26.06108985 26.00849135 -24.40224851 24.28269821 -22.5 22 C-19.91294664 18.89553597 -17.10278666 16.57465276 -14 14 C-13.34 13.175 -12.68 12.35 -12 11.5 C-9.63446981 8.54308726 -6.93429935 6.38411822 -4 4 C-2.64900897 2.68456137 -1.30794331 1.35824882 0 0 Z " fill="#858585" transform="translate(335,120)"/>
<path d="M0 0 C0.33 0.99 0.66 1.98 1 3 C-0.62339805 4.70884005 -2.29319053 6.37446717 -4 8 C-4.66 8 -5.32 8 -6 8 C-6.2475 8.5775 -6.495 9.155 -6.75 9.75 C-8.16683317 12.3002997 -9.87627537 14.01785701 -12 16 C-12.99 15.67 -13.98 15.34 -15 15 C-11.62417369 10.7305726 -8.22751939 7.4179944 -4 4 C-2.64900897 2.68456137 -1.30794331 1.35824882 0 0 Z " fill="#828282" transform="translate(303,152)"/>
<path d="M0 0 C0.33 0.66 0.66 1.32 1 2 C0.34 2 -0.32 2 -1 2 C-1.09667969 2.59554687 -1.19335938 3.19109375 -1.29296875 3.8046875 C-2.1472158 6.457101 -3.17275848 7.37471893 -5.3125 9.125 C-6.20388672 9.87136719 -6.20388672 9.87136719 -7.11328125 10.6328125 C-9.00252656 12.00183084 -10.8865777 13.02026781 -13 14 C-11.85682523 10.57047569 -10.32591187 9.52590148 -7.55859375 7.3359375 C-5.38638121 5.47404104 -3.7512703 3.25163324 -2 1 C-1.34 0.67 -0.68 0.34 0 0 Z " fill="#6B6B6B" transform="translate(377,78)"/>
<path d="M0 0 C0.33 0.66 0.66 1.32 1 2 C-3.87850467 8.23364486 -3.87850467 8.23364486 -8 10 C-8.33 10.66 -8.66 11.32 -9 12 C-9.66 11.67 -10.32 11.34 -11 11 C-7.6381774 6.74828319 -4.25171681 3.3618226 0 0 Z " fill="#636363" transform="translate(399,56)"/>
<path d="M0 0 C0.66 0.33 1.32 0.66 2 1 C-0.10148204 4.98175544 -2.36905358 7.35039045 -6 10 C-6.66 9.67 -7.32 9.34 -8 9 C-5.50174717 5.78796065 -2.9297008 2.82506863 0 0 Z " fill="#797979" transform="translate(286,168)"/>
<path d="M0 0 C0.66 0.33 1.32 0.66 2 1 C-0.31537955 4.72114571 -2.28579473 7.61229661 -6 10 C-6.66 9.67 -7.32 9.34 -8 9 C-5.50174717 5.78796065 -2.9297008 2.82506863 0 0 Z " fill="#6E6E6E" transform="translate(386,68)"/>
<path d="M0 0 C0.33 0.99 0.66 1.98 1 3 C-0.98 4.98 -2.96 6.96 -5 9 C-5.99 8.67 -6.98 8.34 -8 8 C-7.04578192 6.85073734 -6.08647955 5.70569459 -5.125 4.5625 C-4.59132813 3.92441406 -4.05765625 3.28632812 -3.5078125 2.62890625 C-2 1 -2 1 0 0 Z " fill="#757575" transform="translate(424,31)"/>
<path d="M0 0 C0.33 0.99 0.66 1.98 1 3 C-1.31 4.98 -3.62 6.96 -6 9 C-6.66 8.67 -7.32 8.34 -8 8 C-3.375 2.25 -3.375 2.25 0 0 Z " fill="#818181" transform="translate(335,120)"/>
<path d="M0 0 C0.33 0.99 0.66 1.98 1 3 C-1.31 4.98 -3.62 6.96 -6 9 C-5.69381595 5.32579134 -5.24228216 4.21864487 -2.4375 1.6875 C-1.633125 1.130625 -0.82875 0.57375 0 0 Z " fill="#898989" transform="translate(270,185)"/>
<path d="M0 0 C1.32 0.33 2.64 0.66 4 1 C2.02 2.98 0.04 4.96 -2 7 C-2.99 6.67 -3.98 6.34 -5 6 C-3.35 4.02 -1.7 2.04 0 0 Z " fill="#888888" transform="translate(293,161)"/>
<path d="M0 0 C1.32 0.33 2.64 0.66 4 1 C2.02 2.98 0.04 4.96 -2 7 C-2.99 6.67 -3.98 6.34 -5 6 C-3.35 4.02 -1.7 2.04 0 0 Z " fill="#8E8E8E" transform="translate(325,129)"/>
<path d="M0 0 C2.25 0.25 2.25 0.25 4 1 C1.47211993 3.79872437 -0.20411134 5.45773019 -4 6 C-4 4 -4 4 -2.25 1.8125 C-1.5075 1.214375 -0.765 0.61625 0 0 Z " fill="#7C7C7C" transform="translate(340,114)"/>
<path d="M0 0 C0.66 0.33 1.32 0.66 2 1 C-1.465 3.97 -1.465 3.97 -5 7 C-5.66 6.67 -6.32 6.34 -7 6 C-4.74259377 3.66475218 -2.7194239 1.81294927 0 0 Z " fill="#9C9C9C" transform="translate(366,90)"/>
<path d="M0 0 C0.66 0.33 1.32 0.66 2 1 C-0.46153846 5.8 -0.46153846 5.8 -3.1875 6.8125 C-3.785625 6.874375 -4.38375 6.93625 -5 7 C-3.88820837 3.66462511 -2.52588702 2.36292656 0 0 Z " fill="#5F5F5F" transform="translate(411,43)"/>
</svg>
